<svg width="409" height="415" viewBox="0 0 409 415" fill="none" xmlns="http://www.w3.org/2000/svg">
<line x1="199.596" y1="146.706" x2="223.596" y2="113.706" stroke="white"/>
<line x1="275.376" y1="111.67" x2="311.376" y2="152.67" stroke="white"/>
<line x1="102.755" y1="198.564" x2="150.755" y2="171.564" stroke="white"/>
<line x1="71.4211" y1="224.73" x2="103.421" y2="274.73" stroke="white"/>
<line x1="152.516" y1="276.876" x2="172.516" y2="198.876" stroke="white"/>
<line x1="164.707" y1="290.595" x2="298.707" y2="193.595" stroke="white"/>
<line x1="200.459" y1="193.802" x2="238.459" y2="281.802" stroke="white"/>
<line x1="165.082" y1="310.507" x2="219.082" y2="319.507" stroke="white"/>
<line x1="265.595" y1="295.707" x2="323.595" y2="215.707" stroke="white"/>
<line x1="250.5" y1="111.991" x2="253.5" y2="274.991" stroke="white"/>
<path d="M46.125 217.188H89.875" stroke="white" stroke-width="2" stroke-linecap="round" stroke-linejoin="round"/>
<path d="M71.125 217.188V182.812C71.125 182.398 70.9604 182.001 70.6674 181.708C70.3743 181.415 69.9769 181.25 69.5625 181.25H50.8125C50.3981 181.25 50.0007 181.415 49.7076 181.708C49.4146 182.001 49.25 182.398 49.25 182.812V217.188" stroke="white" stroke-width="2" stroke-linecap="round" stroke-linejoin="round"/>
<path d="M86.75 217.188V195.312C86.75 194.898 86.5854 194.501 86.2924 194.208C85.9993 193.915 85.6019 193.75 85.1875 193.75H71.125" stroke="white" stroke-width="2" stroke-linecap="round" stroke-linejoin="round"/>
<path d="M55.5 189.062H61.75" stroke="white" stroke-width="2" stroke-linecap="round" stroke-linejoin="round"/>
<path d="M58.625 201.562H64.875" stroke="white" stroke-width="2" stroke-linecap="round" stroke-linejoin="round"/>
<path d="M55.5 209.375H61.75" stroke="white" stroke-width="2" stroke-linecap="round" stroke-linejoin="round"/>
<path d="M77.375 209.375H80.5" stroke="white" stroke-width="2" stroke-linecap="round" stroke-linejoin="round"/>
<path d="M77.375 201.562H80.5" stroke="white" stroke-width="2" stroke-linecap="round" stroke-linejoin="round"/>
<path d="M314.125 202.188H357.875" stroke="white" stroke-width="2" stroke-linecap="round" stroke-linejoin="round"/>
<path d="M339.125 202.188V167.812C339.125 167.398 338.96 167.001 338.667 166.708C338.374 166.415 337.977 166.25 337.562 166.25H318.812C318.398 166.25 318.001 166.415 317.708 166.708C317.415 167.001 317.25 167.398 317.25 167.812V202.188" stroke="white" stroke-width="2" stroke-linecap="round" stroke-linejoin="round"/>
<path d="M354.75 202.188V180.312C354.75 179.898 354.585 179.501 354.292 179.208C353.999 178.915 353.602 178.75 353.188 178.75H339.125" stroke="white" stroke-width="2" stroke-linecap="round" stroke-linejoin="round"/>
<path d="M323.5 174.062H329.75" stroke="white" stroke-width="2" stroke-linecap="round" stroke-linejoin="round"/>
<path d="M326.625 186.562H332.875" stroke="white" stroke-width="2" stroke-linecap="round" stroke-linejoin="round"/>
<path d="M323.5 194.375H329.75" stroke="white" stroke-width="2" stroke-linecap="round" stroke-linejoin="round"/>
<path d="M345.375 194.375H348.5" stroke="white" stroke-width="2" stroke-linecap="round" stroke-linejoin="round"/>
<path d="M345.375 186.562H348.5" stroke="white" stroke-width="2" stroke-linecap="round" stroke-linejoin="round"/>
<path d="M106.125 319.188H149.875" stroke="white" stroke-width="2" stroke-linecap="round" stroke-linejoin="round"/>
<path d="M131.125 319.188V284.812C131.125 284.398 130.96 284.001 130.667 283.708C130.374 283.415 129.977 283.25 129.562 283.25H110.812C110.398 283.25 110.001 283.415 109.708 283.708C109.415 284.001 109.25 284.398 109.25 284.812V319.188" stroke="white" stroke-width="2" stroke-linecap="round" stroke-linejoin="round"/>
<path d="M146.75 319.188V297.312C146.75 296.898 146.585 296.501 146.292 296.208C145.999 295.915 145.602 295.75 145.188 295.75H131.125" stroke="white" stroke-width="2" stroke-linecap="round" stroke-linejoin="round"/>
<path d="M115.5 291.062H121.75" stroke="white" stroke-width="2" stroke-linecap="round" stroke-linejoin="round"/>
<path d="M118.625 303.562H124.875" stroke="white" stroke-width="2" stroke-linecap="round" stroke-linejoin="round"/>
<path d="M115.5 311.375H121.75" stroke="white" stroke-width="2" stroke-linecap="round" stroke-linejoin="round"/>
<path d="M137.375 311.375H140.5" stroke="white" stroke-width="2" stroke-linecap="round" stroke-linejoin="round"/>
<path d="M137.375 303.562H140.5" stroke="white" stroke-width="2" stroke-linecap="round" stroke-linejoin="round"/>
<path d="M231.125 336.188H274.875" stroke="white" stroke-width="2" stroke-linecap="round" stroke-linejoin="round"/>
<path d="M256.125 336.188V301.812C256.125 301.398 255.96 301.001 255.667 300.708C255.374 300.415 254.977 300.25 254.562 300.25H235.812C235.398 300.25 235.001 300.415 234.708 300.708C234.415 301.001 234.25 301.398 234.25 301.812V336.188" stroke="white" stroke-width="2" stroke-linecap="round" stroke-linejoin="round"/>
<path d="M271.75 336.188V314.312C271.75 313.898 271.585 313.501 271.292 313.208C270.999 312.915 270.602 312.75 270.188 312.75H256.125" stroke="white" stroke-width="2" stroke-linecap="round" stroke-linejoin="round"/>
<path d="M240.5 308.062H246.75" stroke="white" stroke-width="2" stroke-linecap="round" stroke-linejoin="round"/>
<path d="M243.625 320.562H249.875" stroke="white" stroke-width="2" stroke-linecap="round" stroke-linejoin="round"/>
<path d="M240.5 328.375H246.75" stroke="white" stroke-width="2" stroke-linecap="round" stroke-linejoin="round"/>
<path d="M262.375 328.375H265.5" stroke="white" stroke-width="2" stroke-linecap="round" stroke-linejoin="round"/>
<path d="M262.375 320.562H265.5" stroke="white" stroke-width="2" stroke-linecap="round" stroke-linejoin="round"/>
<path d="M225.125 104.188H268.875" stroke="white" stroke-width="2" stroke-linecap="round" stroke-linejoin="round"/>
<path d="M250.125 104.188V69.8125C250.125 69.3981 249.96 69.0007 249.667 68.7076C249.374 68.4146 248.977 68.25 248.562 68.25H229.812C229.398 68.25 229.001 68.4146 228.708 68.7076C228.415 69.0007 228.25 69.3981 228.25 69.8125V104.188" stroke="white" stroke-width="2" stroke-linecap="round" stroke-linejoin="round"/>
<path d="M265.75 104.188V82.3125C265.75 81.8981 265.585 81.5007 265.292 81.2076C264.999 80.9146 264.602 80.75 264.188 80.75H250.125" stroke="white" stroke-width="2" stroke-linecap="round" stroke-linejoin="round"/>
<path d="M234.5 76.0625H240.75" stroke="white" stroke-width="2" stroke-linecap="round" stroke-linejoin="round"/>
<path d="M237.625 88.5625H243.875" stroke="white" stroke-width="2" stroke-linecap="round" stroke-linejoin="round"/>
<path d="M234.5 96.375H240.75" stroke="white" stroke-width="2" stroke-linecap="round" stroke-linejoin="round"/>
<path d="M256.375 96.375H259.5" stroke="white" stroke-width="2" stroke-linecap="round" stroke-linejoin="round"/>
<path d="M256.375 88.5625H259.5" stroke="white" stroke-width="2" stroke-linecap="round" stroke-linejoin="round"/>
<path d="M156.125 183.188H199.875" stroke="white" stroke-width="2" stroke-linecap="round" stroke-linejoin="round"/>
<path d="M181.125 183.188V148.812C181.125 148.398 180.96 148.001 180.667 147.708C180.374 147.415 179.977 147.25 179.562 147.25H160.812C160.398 147.25 160.001 147.415 159.708 147.708C159.415 148.001 159.25 148.398 159.25 148.812V183.188" stroke="white" stroke-width="2" stroke-linecap="round" stroke-linejoin="round"/>
<path d="M196.75 183.188V161.312C196.75 160.898 196.585 160.501 196.292 160.208C195.999 159.915 195.602 159.75 195.188 159.75H181.125" stroke="white" stroke-width="2" stroke-linecap="round" stroke-linejoin="round"/>
<path d="M165.5 155.062H171.75" stroke="white" stroke-width="2" stroke-linecap="round" stroke-linejoin="round"/>
<path d="M168.625 167.562H174.875" stroke="white" stroke-width="2" stroke-linecap="round" stroke-linejoin="round"/>
<path d="M165.5 175.375H171.75" stroke="white" stroke-width="2" stroke-linecap="round" stroke-linejoin="round"/>
<path d="M187.375 175.375H190.5" stroke="white" stroke-width="2" stroke-linecap="round" stroke-linejoin="round"/>
<path d="M187.375 167.562H190.5" stroke="white" stroke-width="2" stroke-linecap="round" stroke-linejoin="round"/>
</svg>
