<svg width="127" height="128" viewBox="0 0 127 128" fill="none" xmlns="http://www.w3.org/2000/svg">
<path d="M39.216 72.12C38.56 72.12 38.028 71.9 37.62 71.46C37.22 71.02 37.02 70.424 37.02 69.672V67.74C37.02 66.98 37.22 66.38 37.62 65.94C38.02 65.5 38.552 65.28 39.216 65.28C39.76 65.28 40.196 65.428 40.524 65.724C40.852 66.02 41.016 66.416 41.016 66.912L40.8 66.66H41.04L41.016 65.16V63.24H42.096V72H41.016V70.74H40.8L41.016 70.488C41.016 70.992 40.852 71.392 40.524 71.688C40.196 71.976 39.76 72.12 39.216 72.12ZM39.576 71.184C40.024 71.184 40.376 71.044 40.632 70.764C40.888 70.484 41.016 70.096 41.016 69.6V67.8C41.016 67.304 40.888 66.916 40.632 66.636C40.376 66.356 40.024 66.216 39.576 66.216C39.12 66.216 38.76 66.352 38.496 66.624C38.232 66.896 38.1 67.288 38.1 67.8V69.6C38.1 70.112 38.232 70.504 38.496 70.776C38.76 71.048 39.12 71.184 39.576 71.184ZM46.7953 72.12C46.2753 72.12 45.8193 72.016 45.4273 71.808C45.0433 71.6 44.7433 71.308 44.5273 70.932C44.3193 70.548 44.2153 70.104 44.2153 69.6V67.8C44.2153 67.288 44.3193 66.844 44.5273 66.468C44.7433 66.092 45.0433 65.8 45.4273 65.592C45.8193 65.384 46.2753 65.28 46.7953 65.28C47.3153 65.28 47.7673 65.384 48.1513 65.592C48.5433 65.8 48.8433 66.092 49.0513 66.468C49.2673 66.844 49.3753 67.288 49.3753 67.8V68.964H45.2713V69.6C45.2713 70.12 45.4033 70.52 45.6673 70.8C45.9313 71.072 46.3073 71.208 46.7953 71.208C47.2113 71.208 47.5473 71.136 47.8033 70.992C48.0593 70.84 48.2153 70.616 48.2713 70.32H49.3513C49.2793 70.872 49.0073 71.312 48.5353 71.64C48.0713 71.96 47.4913 72.12 46.7953 72.12ZM48.3193 68.244V67.8C48.3193 67.28 48.1873 66.88 47.9233 66.6C47.6673 66.32 47.2913 66.18 46.7953 66.18C46.3073 66.18 45.9313 66.32 45.6673 66.6C45.4033 66.88 45.2713 67.28 45.2713 67.8V68.148H48.4033L48.3193 68.244ZM51.7226 72V65.4H52.7786V66.66H53.0306L52.6826 67.44C52.6826 66.728 52.8346 66.192 53.1386 65.832C53.4506 65.464 53.9106 65.28 54.5186 65.28C55.2146 65.28 55.7666 65.5 56.1746 65.94C56.5906 66.372 56.7986 66.96 56.7986 67.704V68.1H55.7186V67.8C55.7186 67.28 55.5906 66.884 55.3346 66.612C55.0866 66.332 54.7306 66.192 54.2666 66.192C53.8106 66.192 53.4506 66.332 53.1866 66.612C52.9306 66.892 52.8026 67.288 52.8026 67.8V72H51.7226ZM65.8013 72V71.016H68.1413V66.384H66.1013V65.4H69.2213V71.016H71.4413V72H65.8013ZM68.5613 64.212C68.2973 64.212 68.0893 64.144 67.9373 64.008C67.7853 63.872 67.7093 63.688 67.7093 63.456C67.7093 63.216 67.7853 63.028 67.9373 62.892C68.0893 62.748 68.2973 62.676 68.5613 62.676C68.8253 62.676 69.0333 62.748 69.1853 62.892C69.3373 63.028 69.4133 63.216 69.4133 63.456C69.4133 63.688 69.3373 63.872 69.1853 64.008C69.0333 64.144 68.8253 64.212 68.5613 64.212ZM73.0806 72V65.4H74.1606V66.66H74.3886L74.1606 66.912C74.1606 66.392 74.3166 65.992 74.6286 65.712C74.9406 65.424 75.3726 65.28 75.9246 65.28C76.5886 65.28 77.1166 65.484 77.5086 65.892C77.9006 66.3 78.0966 66.856 78.0966 67.56V72H77.0166V67.68C77.0166 67.208 76.8886 66.848 76.6326 66.6C76.3846 66.344 76.0446 66.216 75.6126 66.216C75.1646 66.216 74.8086 66.352 74.5446 66.624C74.2886 66.896 74.1606 67.288 74.1606 67.8V72H73.0806ZM81.8119 72V67.044H79.8919V66.06H81.8119V64.92C81.8119 64.4 81.9759 63.992 82.3039 63.696C82.6319 63.392 83.0839 63.24 83.6599 63.24H85.5919V64.224H83.6599C83.4119 64.224 83.2199 64.284 83.0839 64.404C82.9559 64.516 82.8919 64.688 82.8919 64.92V66.06H85.5919V67.044H82.8919V72H81.8119ZM89.9672 72.12C89.6632 72.12 89.4192 72.032 89.2352 71.856C89.0592 71.68 88.9712 71.444 88.9712 71.148C88.9712 70.836 89.0592 70.588 89.2352 70.404C89.4192 70.22 89.6632 70.128 89.9672 70.128C90.2712 70.128 90.5112 70.22 90.6872 70.404C90.8712 70.588 90.9632 70.836 90.9632 71.148C90.9632 71.444 90.8712 71.68 90.6872 71.856C90.5112 72.032 90.2712 72.12 89.9672 72.12ZM36.6 87L38.88 78.24H40.332L42.6 87H41.508L40.932 84.672H38.28L37.704 87H36.6ZM38.496 83.76H40.704L40.032 81.06C39.904 80.548 39.804 80.12 39.732 79.776C39.66 79.432 39.616 79.208 39.6 79.104C39.584 79.208 39.54 79.432 39.468 79.776C39.396 80.12 39.296 80.544 39.168 81.048L38.496 83.76ZM46.8433 87.12C46.3153 87.12 45.8553 87.02 45.4633 86.82C45.0793 86.62 44.7793 86.332 44.5633 85.956C44.3553 85.572 44.2513 85.12 44.2513 84.6V80.64C44.2513 80.112 44.3553 79.66 44.5633 79.284C44.7793 78.908 45.0793 78.62 45.4633 78.42C45.8553 78.22 46.3153 78.12 46.8433 78.12C47.3713 78.12 47.8273 78.224 48.2113 78.432C48.5953 78.632 48.8913 78.92 49.0993 79.296C49.3073 79.672 49.4113 80.12 49.4113 80.64H48.3313C48.3313 80.144 48.1993 79.764 47.9353 79.5C47.6793 79.228 47.3153 79.092 46.8433 79.092C46.3713 79.092 45.9993 79.224 45.7273 79.488C45.4633 79.752 45.3313 80.132 45.3313 80.628V84.6C45.3313 85.096 45.4633 85.48 45.7273 85.752C45.9993 86.024 46.3713 86.16 46.8433 86.16C47.3153 86.16 47.6793 86.024 47.9353 85.752C48.1993 85.48 48.3313 85.096 48.3313 84.6V83.52H46.5553V82.536H49.4113V84.6C49.4113 85.112 49.3073 85.56 49.0993 85.944C48.8913 86.32 48.5953 86.612 48.2113 86.82C47.8273 87.02 47.3713 87.12 46.8433 87.12ZM53.7866 87.096C53.3386 87.096 52.9466 87.028 52.6106 86.892C52.2826 86.748 52.0186 86.548 51.8186 86.292C51.6266 86.036 51.5106 85.732 51.4706 85.38H52.5506C52.5986 85.612 52.7266 85.796 52.9346 85.932C53.1506 86.068 53.4346 86.136 53.7866 86.136H54.2906C54.7146 86.136 55.0306 86.052 55.2386 85.884C55.4466 85.708 55.5506 85.476 55.5506 85.188C55.5506 84.908 55.4546 84.688 55.2626 84.528C55.0786 84.36 54.8026 84.248 54.4346 84.192L53.5466 84.048C52.8986 83.936 52.4146 83.736 52.0946 83.448C51.7826 83.152 51.6266 82.724 51.6266 82.164C51.6266 81.572 51.8146 81.116 52.1906 80.796C52.5666 80.468 53.1306 80.304 53.8826 80.304H54.3386C54.9706 80.304 55.4786 80.452 55.8626 80.748C56.2466 81.044 56.4786 81.444 56.5586 81.948H55.4786C55.4306 81.74 55.3106 81.576 55.1186 81.456C54.9266 81.328 54.6666 81.264 54.3386 81.264H53.8826C53.4746 81.264 53.1746 81.34 52.9826 81.492C52.7986 81.644 52.7066 81.872 52.7066 82.176C52.7066 82.448 52.7866 82.648 52.9466 82.776C53.1066 82.904 53.3586 82.996 53.7026 83.052L54.5906 83.196C55.3026 83.308 55.8186 83.516 56.1386 83.82C56.4666 84.124 56.6306 84.564 56.6306 85.14C56.6306 85.748 56.4346 86.228 56.0426 86.58C55.6586 86.924 55.0746 87.096 54.2906 87.096H53.7866Z" fill="white"/>
<path d="M39.6 57.096C39.072 57.096 38.616 56.996 38.232 56.796C37.848 56.596 37.548 56.308 37.332 55.932C37.124 55.548 37.02 55.096 37.02 54.576V52.824C37.02 52.296 37.124 51.844 37.332 51.468C37.548 51.092 37.848 50.804 38.232 50.604C38.616 50.404 39.072 50.304 39.6 50.304C40.128 50.304 40.584 50.404 40.968 50.604C41.352 50.804 41.648 51.092 41.856 51.468C42.072 51.844 42.18 52.292 42.18 52.812V54.576C42.18 55.096 42.072 55.548 41.856 55.932C41.648 56.308 41.352 56.596 40.968 56.796C40.584 56.996 40.128 57.096 39.6 57.096ZM39.6 56.136C40.072 56.136 40.44 56.004 40.704 55.74C40.968 55.476 41.1 55.088 41.1 54.576V52.824C41.1 52.312 40.968 51.924 40.704 51.66C40.44 51.396 40.072 51.264 39.6 51.264C39.136 51.264 38.768 51.396 38.496 51.66C38.232 51.924 38.1 52.312 38.1 52.824V54.576C38.1 55.088 38.232 55.476 38.496 55.74C38.768 56.004 39.136 56.136 39.6 56.136ZM43.9873 57V50.4H44.9353V51.192H45.1513L44.9833 51.48C44.9833 51.112 45.0793 50.82 45.2713 50.604C45.4713 50.388 45.7393 50.28 46.0753 50.28C46.4433 50.28 46.7273 50.416 46.9273 50.688C47.1273 50.96 47.2273 51.344 47.2273 51.84L46.9033 51.192H47.4073L47.1793 51.48C47.1793 51.112 47.2793 50.82 47.4793 50.604C47.6873 50.388 47.9593 50.28 48.2953 50.28C48.7113 50.28 49.0313 50.436 49.2553 50.748C49.4873 51.06 49.6033 51.472 49.6033 51.984V57H48.6073V51.972C48.6073 51.7 48.5473 51.488 48.4273 51.336C48.3153 51.184 48.1473 51.108 47.9233 51.108C47.7073 51.108 47.5353 51.184 47.4073 51.336C47.2873 51.48 47.2273 51.688 47.2273 51.96V57H46.3633V51.972C46.3633 51.692 46.2993 51.48 46.1713 51.336C46.0513 51.184 45.8793 51.108 45.6553 51.108C45.4313 51.108 45.2633 51.184 45.1513 51.336C45.0393 51.48 44.9833 51.688 44.9833 51.96V57H43.9873ZM51.1826 57V50.4H52.1306V51.192H52.3466L52.1786 51.48C52.1786 51.112 52.2746 50.82 52.4666 50.604C52.6666 50.388 52.9346 50.28 53.2706 50.28C53.6386 50.28 53.9226 50.416 54.1226 50.688C54.3226 50.96 54.4226 51.344 54.4226 51.84L54.0986 51.192H54.6026L54.3746 51.48C54.3746 51.112 54.4746 50.82 54.6746 50.604C54.8826 50.388 55.1546 50.28 55.4906 50.28C55.9066 50.28 56.2266 50.436 56.4506 50.748C56.6826 51.06 56.7986 51.472 56.7986 51.984V57H55.8026V51.972C55.8026 51.7 55.7426 51.488 55.6226 51.336C55.5106 51.184 55.3426 51.108 55.1186 51.108C54.9026 51.108 54.7306 51.184 54.6026 51.336C54.4826 51.48 54.4226 51.688 54.4226 51.96V57H53.5586V51.972C53.5586 51.692 53.4946 51.48 53.3666 51.336C53.2466 51.184 53.0746 51.108 52.8506 51.108C52.6266 51.108 52.4586 51.184 52.3466 51.336C52.2346 51.48 52.1786 51.688 52.1786 51.96V57H51.1826ZM61.1739 57.12C60.4139 57.12 59.8059 56.896 59.3499 56.448C58.8939 55.992 58.6659 55.376 58.6659 54.6V50.4H59.7459V54.6C59.7459 55.096 59.8739 55.484 60.1299 55.764C60.3859 56.036 60.7339 56.172 61.1739 56.172C61.6219 56.172 61.9739 56.036 62.2299 55.764C62.4939 55.484 62.6259 55.096 62.6259 54.6V50.4H63.7059V54.6C63.7059 55.376 63.4739 55.992 63.0099 56.448C62.5459 56.896 61.9339 57.12 61.1739 57.12ZM65.8853 57V50.4H66.9653V51.66H67.1933L66.9653 51.912C66.9653 51.392 67.1213 50.992 67.4333 50.712C67.7453 50.424 68.1773 50.28 68.7293 50.28C69.3933 50.28 69.9213 50.484 70.3133 50.892C70.7053 51.3 70.9013 51.856 70.9013 52.56V57H69.8213V52.68C69.8213 52.208 69.6933 51.848 69.4373 51.6C69.1893 51.344 68.8493 51.216 68.4173 51.216C67.9693 51.216 67.6133 51.352 67.3493 51.624C67.0933 51.896 66.9653 52.288 66.9653 52.8V57H65.8853ZM72.9966 57V56.016H75.3366V51.384H73.2966V50.4H76.4166V56.016H78.6366V57H72.9966ZM75.7566 49.212C75.4926 49.212 75.2846 49.144 75.1326 49.008C74.9806 48.872 74.9046 48.688 74.9046 48.456C74.9046 48.216 74.9806 48.028 75.1326 47.892C75.2846 47.748 75.4926 47.676 75.7566 47.676C76.0206 47.676 76.2286 47.748 76.3806 47.892C76.5326 48.028 76.6086 48.216 76.6086 48.456C76.6086 48.688 76.5326 48.872 76.3806 49.008C76.2286 49.144 76.0206 49.212 75.7566 49.212ZM83.4919 57C82.9239 57 82.4799 56.848 82.1599 56.544C81.8479 56.24 81.6919 55.812 81.6919 55.26V51.384H79.8319V50.4H81.6919V48.54H82.7719V50.4H85.4119V51.384H82.7719V55.26C82.7719 55.764 83.0119 56.016 83.4919 56.016H85.2919V57H83.4919ZM88.5032 59.16L89.4752 56.592L87.0272 50.4H88.2272L89.7632 54.48C89.8192 54.616 89.8712 54.78 89.9192 54.972C89.9672 55.156 90.0072 55.312 90.0392 55.44C90.0712 55.312 90.1112 55.156 90.1592 54.972C90.2072 54.78 90.2552 54.616 90.3032 54.48L91.7432 50.4H92.9072L89.6552 59.16H88.5032Z" fill="white"/>
<path d="M27.18 72.3C25.96 72.3 24.9 72.05 24 71.55C23.1 71.05 22.4 70.35 21.9 69.45C21.4 68.55 21.15 67.5 21.15 66.3V55.8C21.15 54.58 21.4 53.52 21.9 52.62C22.4 51.72 23.1 51.03 24 50.55C24.9 50.05 25.96 49.8 27.18 49.8C28.42 49.8 29.5 50.06 30.42 50.58C31.34 51.1 32.05 51.83 32.55 52.77C33.05 53.71 33.3 54.82 33.3 56.1H31.8C31.8 54.56 31.38 53.35 30.54 52.47C29.72 51.59 28.6 51.15 27.18 51.15C25.78 51.15 24.67 51.57 23.85 52.41C23.05 53.23 22.65 54.36 22.65 55.8V66.3C22.65 67.74 23.05 68.88 23.85 69.72C24.67 70.54 25.78 70.95 27.18 70.95C28.62 70.95 29.75 70.51 30.57 69.63C31.39 68.73 31.8 67.52 31.8 66H33.3C33.3 67.28 33.05 68.39 32.55 69.33C32.05 70.27 31.34 71 30.42 71.52C29.5 72.04 28.42 72.3 27.18 72.3Z" fill="white"/>
<path d="M42.459 40.6289L38.3809 38.0918V37.125L42.459 34.4941V35.877L39.418 37.5586L42.459 39.293V40.6289ZM41.4043 93.1172L39.2598 102.152H38.2109L40.3613 93.1172H41.4043ZM48.834 98.0918L44.7441 100.629V99.2988L47.791 97.5645L44.7441 95.877V94.4941L48.834 97.125V98.0918Z" fill="white"/>
<rect x="16.5" y="20.5" width="94" height="94" stroke="white"/>
</svg>
