<svg width="127" height="128" viewBox="0 0 127 128" fill="none" xmlns="http://www.w3.org/2000/svg">
<path d="M37.2 72V63.24H42.24V64.224H38.268V66.936H41.82V67.908H38.268V71.016H42.24V72H37.2ZM44.2993 72V65.4H45.3793V66.66H45.6073L45.3793 66.912C45.3793 66.392 45.5353 65.992 45.8473 65.712C46.1593 65.424 46.5913 65.28 47.1433 65.28C47.8073 65.28 48.3353 65.484 48.7273 65.892C49.1193 66.3 49.3153 66.856 49.3153 67.56V72H48.2353V67.68C48.2353 67.208 48.1073 66.848 47.8513 66.6C47.6033 66.344 47.2633 66.216 46.8313 66.216C46.3833 66.216 46.0273 66.352 45.7633 66.624C45.5073 66.896 45.3793 67.288 45.3793 67.8V72H44.2993ZM54.7106 72C54.1426 72 53.6986 71.848 53.3786 71.544C53.0666 71.24 52.9106 70.812 52.9106 70.26V66.384H51.0506V65.4H52.9106V63.54H53.9906V65.4H56.6306V66.384H53.9906V70.26C53.9906 70.764 54.2306 71.016 54.7106 71.016H56.5106V72H54.7106ZM59.0619 72L58.0059 65.4H58.9659L59.6259 70.08C59.6499 70.256 59.6739 70.448 59.6979 70.656C59.7299 70.856 59.7539 71.024 59.7699 71.16C59.7859 71.024 59.8099 70.856 59.8419 70.656C59.8819 70.448 59.9139 70.256 59.9379 70.08L60.6699 65.4H61.7019L62.4339 70.08C62.4579 70.256 62.4859 70.448 62.5179 70.656C62.5579 70.856 62.5859 71.024 62.6019 71.16C62.6179 71.024 62.6419 70.856 62.6739 70.656C62.7139 70.448 62.7459 70.256 62.7699 70.08L63.4539 65.4H64.3659L63.2619 72H62.0739L61.3659 67.44C61.3339 67.216 61.2979 66.992 61.2579 66.768C61.2179 66.544 61.1899 66.368 61.1739 66.24C61.1579 66.368 61.1339 66.544 61.1019 66.768C61.0699 66.992 61.0339 67.216 60.9939 67.44L60.2499 72H59.0619ZM65.8013 72V71.016H68.1413V66.384H66.1013V65.4H69.2213V71.016H71.4413V72H65.8013ZM68.5613 64.212C68.2973 64.212 68.0893 64.144 67.9373 64.008C67.7853 63.872 67.7093 63.688 67.7093 63.456C67.7093 63.216 67.7853 63.028 67.9373 62.892C68.0893 62.748 68.2973 62.676 68.5613 62.676C68.8253 62.676 69.0333 62.748 69.1853 62.892C69.3373 63.028 69.4133 63.216 69.4133 63.456C69.4133 63.688 69.3373 63.872 69.1853 64.008C69.0333 64.144 68.8253 64.212 68.5613 64.212ZM75.6246 72.12C75.0966 72.12 74.6326 72.02 74.2326 71.82C73.8406 71.62 73.5366 71.332 73.3206 70.956C73.1046 70.572 72.9966 70.12 72.9966 69.6V67.8C72.9966 67.272 73.1046 66.82 73.3206 66.444C73.5366 66.068 73.8406 65.78 74.2326 65.58C74.6326 65.38 75.0966 65.28 75.6246 65.28C76.3846 65.28 76.9966 65.484 77.4606 65.892C77.9246 66.3 78.1686 66.856 78.1926 67.56H77.1126C77.0886 67.136 76.9446 66.812 76.6806 66.588C76.4246 66.356 76.0726 66.24 75.6246 66.24C75.1526 66.24 74.7766 66.376 74.4966 66.648C74.2166 66.912 74.0766 67.292 74.0766 67.788V69.6C74.0766 70.096 74.2166 70.48 74.4966 70.752C74.7766 71.024 75.1526 71.16 75.6246 71.16C76.0726 71.16 76.4246 71.044 76.6806 70.812C76.9446 70.58 77.0886 70.256 77.1126 69.84H78.1926C78.1686 70.544 77.9246 71.1 77.4606 71.508C76.9966 71.916 76.3846 72.12 75.6246 72.12ZM80.3119 72V63.24H81.3919V68.124H82.6639L84.5839 65.4H85.8199L83.5999 68.544L85.8559 72H84.5959L82.6759 69.06H81.3919V72H80.3119ZM89.9672 72.12C89.4472 72.12 88.9912 72.016 88.5992 71.808C88.2152 71.6 87.9152 71.308 87.6992 70.932C87.4912 70.548 87.3872 70.104 87.3872 69.6V67.8C87.3872 67.288 87.4912 66.844 87.6992 66.468C87.9152 66.092 88.2152 65.8 88.5992 65.592C88.9912 65.384 89.4472 65.28 89.9672 65.28C90.4872 65.28 90.9392 65.384 91.3232 65.592C91.7152 65.8 92.0152 66.092 92.2232 66.468C92.4392 66.844 92.5472 67.288 92.5472 67.8V68.964H88.4432V69.6C88.4432 70.12 88.5752 70.52 88.8392 70.8C89.1032 71.072 89.4792 71.208 89.9672 71.208C90.3832 71.208 90.7192 71.136 90.9752 70.992C91.2312 70.84 91.3872 70.616 91.4432 70.32H92.5232C92.4512 70.872 92.1792 71.312 91.7072 71.64C91.2432 71.96 90.6632 72.12 89.9672 72.12ZM91.4912 68.244V67.8C91.4912 67.28 91.3592 66.88 91.0952 66.6C90.8392 66.32 90.4632 66.18 89.9672 66.18C89.4792 66.18 89.1032 66.32 88.8392 66.6C88.5752 66.88 88.4432 67.28 88.4432 67.8V68.148H91.5752L91.4912 68.244ZM98.0625 72C97.6785 72 97.3425 71.924 97.0545 71.772C96.7665 71.62 96.5425 71.404 96.3825 71.124C96.2225 70.844 96.1425 70.516 96.1425 70.14V64.224H93.9225V63.24H97.2225V70.14C97.2225 70.412 97.2985 70.628 97.4505 70.788C97.6025 70.94 97.8065 71.016 98.0625 71.016H100.163V72H98.0625ZM105.078 72C104.51 72 104.066 71.848 103.746 71.544C103.434 71.24 103.278 70.812 103.278 70.26V66.384H101.418V65.4H103.278V63.54H104.358V65.4H106.998V66.384H104.358V70.26C104.358 70.764 104.598 71.016 105.078 71.016H106.878V72H105.078ZM37.104 87V78.24H39.372C39.94 78.24 40.428 78.348 40.836 78.564C41.252 78.78 41.572 79.084 41.796 79.476C42.028 79.868 42.144 80.332 42.144 80.868V84.36C42.144 84.896 42.028 85.364 41.796 85.764C41.572 86.156 41.252 86.46 40.836 86.676C40.428 86.892 39.94 87 39.372 87H37.104ZM38.184 86.04H39.372C39.9 86.04 40.312 85.892 40.608 85.596C40.912 85.3 41.064 84.888 41.064 84.36V80.868C41.064 80.348 40.912 79.94 40.608 79.644C40.312 79.348 39.9 79.2 39.372 79.2H38.184V86.04ZM44.2153 87V86.016H46.5553V81.384H44.5153V80.4H47.6353V86.016H49.8553V87H44.2153ZM46.9753 79.212C46.7113 79.212 46.5033 79.144 46.3513 79.008C46.1993 78.872 46.1233 78.688 46.1233 78.456C46.1233 78.216 46.1993 78.028 46.3513 77.892C46.5033 77.748 46.7113 77.676 46.9753 77.676C47.2393 77.676 47.4473 77.748 47.5993 77.892C47.7513 78.028 47.8273 78.216 47.8273 78.456C47.8273 78.688 47.7513 78.872 47.5993 79.008C47.4473 79.144 47.2393 79.212 46.9753 79.212ZM52.3226 89.16V88.176H54.4226C54.7586 88.176 55.0026 88.1 55.1546 87.948C55.3146 87.796 55.3946 87.56 55.3946 87.24V86.4L55.4186 85.2H55.2026L55.4066 85.02C55.4066 85.5 55.2466 85.88 54.9266 86.16C54.6066 86.44 54.1786 86.58 53.6426 86.58C52.9626 86.58 52.4266 86.36 52.0346 85.92C51.6426 85.472 51.4466 84.872 51.4466 84.12V82.728C51.4466 81.976 51.6426 81.38 52.0346 80.94C52.4266 80.5 52.9626 80.28 53.6426 80.28C54.1786 80.28 54.6066 80.42 54.9266 80.7C55.2466 80.98 55.4066 81.36 55.4066 81.84L55.2026 81.66H55.4066V80.4H56.4746V87.24C56.4746 87.832 56.2906 88.3 55.9226 88.644C55.5626 88.988 55.0586 89.16 54.4106 89.16H52.3226ZM53.9666 85.644C54.4146 85.644 54.7666 85.504 55.0226 85.224C55.2786 84.944 55.4066 84.556 55.4066 84.06V82.8C55.4066 82.304 55.2786 81.916 55.0226 81.636C54.7666 81.356 54.4146 81.216 53.9666 81.216C53.5106 81.216 53.1546 81.352 52.8986 81.624C52.6506 81.896 52.5266 82.288 52.5266 82.8V84.06C52.5266 84.572 52.6506 84.964 52.8986 85.236C53.1546 85.508 53.5106 85.644 53.9666 85.644ZM58.6059 87V86.016H60.9459V81.384H58.9059V80.4H62.0259V86.016H64.2459V87H58.6059ZM61.3659 79.212C61.1019 79.212 60.8939 79.144 60.7419 79.008C60.5899 78.872 60.5139 78.688 60.5139 78.456C60.5139 78.216 60.5899 78.028 60.7419 77.892C60.8939 77.748 61.1019 77.676 61.3659 77.676C61.6299 77.676 61.8379 77.748 61.9899 77.892C62.1419 78.028 62.2179 78.216 62.2179 78.456C62.2179 78.688 62.1419 78.872 61.9899 79.008C61.8379 79.144 61.6299 79.212 61.3659 79.212ZM69.1013 87C68.5333 87 68.0893 86.848 67.7693 86.544C67.4573 86.24 67.3013 85.812 67.3013 85.26V81.384H65.4413V80.4H67.3013V78.54H68.3813V80.4H71.0213V81.384H68.3813V85.26C68.3813 85.764 68.6213 86.016 69.1013 86.016H70.9013V87H69.1013ZM75.0006 87.12C74.3046 87.12 73.7566 86.944 73.3566 86.592C72.9566 86.232 72.7566 85.748 72.7566 85.14C72.7566 84.524 72.9566 84.04 73.3566 83.688C73.7566 83.336 74.2966 83.16 74.9766 83.16H77.0166V82.5C77.0166 82.092 76.8926 81.78 76.6446 81.564C76.4046 81.34 76.0606 81.228 75.6126 81.228C75.2206 81.228 74.8926 81.312 74.6286 81.48C74.3646 81.64 74.2126 81.86 74.1726 82.14H73.0926C73.1646 81.572 73.4326 81.12 73.8966 80.784C74.3606 80.448 74.9406 80.28 75.6366 80.28C76.3966 80.28 76.9966 80.476 77.4366 80.868C77.8766 81.26 78.0966 81.792 78.0966 82.464V87H77.0406V85.74H76.8606L77.0406 85.56C77.0406 86.04 76.8526 86.42 76.4766 86.7C76.1086 86.98 75.6166 87.12 75.0006 87.12ZM75.2646 86.268C75.7766 86.268 76.1966 86.14 76.5246 85.884C76.8526 85.628 77.0166 85.3 77.0166 84.9V83.964H75.0006C74.6406 83.964 74.3566 84.064 74.1486 84.264C73.9406 84.464 73.8366 84.736 73.8366 85.08C73.8366 85.448 73.9606 85.74 74.2086 85.956C74.4646 86.164 74.8166 86.268 75.2646 86.268ZM83.6719 87C83.2879 87 82.9519 86.924 82.6639 86.772C82.3759 86.62 82.1519 86.404 81.9919 86.124C81.8319 85.844 81.7519 85.516 81.7519 85.14V79.224H79.5319V78.24H82.8319V85.14C82.8319 85.412 82.9079 85.628 83.0599 85.788C83.2119 85.94 83.4159 86.016 83.6719 86.016H85.7719V87H83.6719Z" fill="white"/>
<path d="M39.588 57.12C38.828 57.12 38.22 56.896 37.764 56.448C37.308 55.992 37.08 55.376 37.08 54.6V50.4H38.16V54.6C38.16 55.096 38.288 55.484 38.544 55.764C38.8 56.036 39.148 56.172 39.588 56.172C40.036 56.172 40.388 56.036 40.644 55.764C40.908 55.484 41.04 55.096 41.04 54.6V50.4H42.12V54.6C42.12 55.376 41.888 55.992 41.424 56.448C40.96 56.896 40.348 57.12 39.588 57.12ZM45.1273 59.16V58.176H47.2273C47.5633 58.176 47.8073 58.1 47.9593 57.948C48.1193 57.796 48.1993 57.56 48.1993 57.24V56.4L48.2233 55.2H48.0073L48.2113 55.02C48.2113 55.5 48.0513 55.88 47.7313 56.16C47.4113 56.44 46.9833 56.58 46.4473 56.58C45.7673 56.58 45.2313 56.36 44.8393 55.92C44.4473 55.472 44.2513 54.872 44.2513 54.12V52.728C44.2513 51.976 44.4473 51.38 44.8393 50.94C45.2313 50.5 45.7673 50.28 46.4473 50.28C46.9833 50.28 47.4113 50.42 47.7313 50.7C48.0513 50.98 48.2113 51.36 48.2113 51.84L48.0073 51.66H48.2113V50.4H49.2793V57.24C49.2793 57.832 49.0953 58.3 48.7273 58.644C48.3673 58.988 47.8633 59.16 47.2153 59.16H45.1273ZM46.7713 55.644C47.2193 55.644 47.5713 55.504 47.8273 55.224C48.0833 54.944 48.2113 54.556 48.2113 54.06V52.8C48.2113 52.304 48.0833 51.916 47.8273 51.636C47.5713 51.356 47.2193 51.216 46.7713 51.216C46.3153 51.216 45.9593 51.352 45.7033 51.624C45.4553 51.896 45.3313 52.288 45.3313 52.8V54.06C45.3313 54.572 45.4553 54.964 45.7033 55.236C45.9593 55.508 46.3153 55.644 46.7713 55.644ZM53.9906 57.12C53.4706 57.12 53.0146 57.016 52.6226 56.808C52.2386 56.6 51.9386 56.308 51.7226 55.932C51.5146 55.548 51.4106 55.104 51.4106 54.6V52.8C51.4106 52.288 51.5146 51.844 51.7226 51.468C51.9386 51.092 52.2386 50.8 52.6226 50.592C53.0146 50.384 53.4706 50.28 53.9906 50.28C54.5106 50.28 54.9626 50.384 55.3466 50.592C55.7386 50.8 56.0386 51.092 56.2466 51.468C56.4626 51.844 56.5706 52.288 56.5706 52.8V53.964H52.4666V54.6C52.4666 55.12 52.5986 55.52 52.8626 55.8C53.1266 56.072 53.5026 56.208 53.9906 56.208C54.4066 56.208 54.7426 56.136 54.9986 55.992C55.2546 55.84 55.4106 55.616 55.4666 55.32H56.5466C56.4746 55.872 56.2026 56.312 55.7306 56.64C55.2666 56.96 54.6866 57.12 53.9906 57.12ZM55.5146 53.244V52.8C55.5146 52.28 55.3826 51.88 55.1186 51.6C54.8626 51.32 54.4866 51.18 53.9906 51.18C53.5026 51.18 53.1266 51.32 52.8626 51.6C52.5986 51.88 52.4666 52.28 52.4666 52.8V53.148H55.5986L55.5146 53.244ZM58.6899 57V50.4H59.7699V51.66H59.9979L59.7699 51.912C59.7699 51.392 59.9259 50.992 60.2379 50.712C60.5499 50.424 60.9819 50.28 61.5339 50.28C62.1979 50.28 62.7259 50.484 63.1179 50.892C63.5099 51.3 63.7059 51.856 63.7059 52.56V57H62.6259V52.68C62.6259 52.208 62.4979 51.848 62.2419 51.6C61.9939 51.344 61.6539 51.216 61.2219 51.216C60.7739 51.216 60.4179 51.352 60.1539 51.624C59.8979 51.896 59.7699 52.288 59.7699 52.8V57H58.6899ZM67.9973 57.12C67.3413 57.12 66.8093 56.9 66.4013 56.46C66.0013 56.02 65.8013 55.424 65.8013 54.672V52.74C65.8013 51.98 66.0013 51.38 66.4013 50.94C66.8013 50.5 67.3333 50.28 67.9973 50.28C68.5413 50.28 68.9773 50.428 69.3053 50.724C69.6333 51.02 69.7973 51.416 69.7973 51.912L69.5813 51.66H69.8213L69.7973 50.16V48.24H70.8773V57H69.7973V55.74H69.5813L69.7973 55.488C69.7973 55.992 69.6333 56.392 69.3053 56.688C68.9773 56.976 68.5413 57.12 67.9973 57.12ZM68.3573 56.184C68.8053 56.184 69.1573 56.044 69.4133 55.764C69.6693 55.484 69.7973 55.096 69.7973 54.6V52.8C69.7973 52.304 69.6693 51.916 69.4133 51.636C69.1573 51.356 68.8053 51.216 68.3573 51.216C67.9013 51.216 67.5413 51.352 67.2773 51.624C67.0133 51.896 66.8813 52.288 66.8813 52.8V54.6C66.8813 55.112 67.0133 55.504 67.2773 55.776C67.5413 56.048 67.9013 56.184 68.3573 56.184Z" fill="white"/>
<path d="M26.25 72.3C24.33 72.3 22.82 71.74 21.72 70.62C20.64 69.5 20.1 67.96 20.1 66H21.6C21.6 67.54 22.01 68.75 22.83 69.63C23.67 70.51 24.81 70.95 26.25 70.95C27.69 70.95 28.82 70.51 29.64 69.63C30.48 68.75 30.9 67.55 30.9 66.03V51.51H25.29V50.1H32.4V66.03C32.4 67.97 31.85 69.5 30.75 70.62C29.65 71.74 28.15 72.3 26.25 72.3Z" fill="white"/>
<path d="M42.459 40.6289L38.3809 38.0918V37.125L42.459 34.4941V35.877L39.418 37.5586L42.459 39.293V40.6289ZM41.4043 93.1172L39.2598 102.152H38.2109L40.3613 93.1172H41.4043ZM48.834 98.0918L44.7441 100.629V99.2988L47.791 97.5645L44.7441 95.877V94.4941L48.834 97.125V98.0918Z" fill="white"/>
<rect x="16.5" y="20.5" width="94" height="94" stroke="white"/>
</svg>
